<mxfile host="app.diagrams.net" modified="2021-11-30T22:27:53.143Z" agent="5.0 (Windows NT 10.0; Win64; x64) AppleWebKit/537.36 (KHTML, like Gecko) Chrome/96.0.4664.45 Safari/537.36" etag="xXHvV1E9hP0eOEorA7kD" version="15.8.8" type="github">
  <diagram id="bvy_eG0-Dj0skfsHbrSw" name="Page-1">
    <mxGraphModel dx="1422" dy="762" grid="1" gridSize="10" guides="1" tooltips="1" connect="1" arrows="1" fold="1" page="1" pageScale="1" pageWidth="1169" pageHeight="827" math="0" shadow="0">
      <root>
        <mxCell id="0" />
        <mxCell id="1" parent="0" />
        <mxCell id="Qv8Gig_lNZ5WpE_LXsZh-9" value="" style="ellipse;whiteSpace=wrap;html=1;aspect=fixed;fillColor=#fff2cc;strokeColor=#d6b656;" vertex="1" parent="1">
          <mxGeometry x="275" y="109" width="610" height="610" as="geometry" />
        </mxCell>
        <mxCell id="Qv8Gig_lNZ5WpE_LXsZh-7" value="" style="ellipse;whiteSpace=wrap;html=1;aspect=fixed;fillColor=#dae8fc;strokeColor=#6c8ebf;" vertex="1" parent="1">
          <mxGeometry x="360" y="200" width="440" height="440" as="geometry" />
        </mxCell>
        <mxCell id="Qv8Gig_lNZ5WpE_LXsZh-4" value="" style="ellipse;whiteSpace=wrap;html=1;aspect=fixed;fillColor=#d5e8d4;strokeColor=#82b366;" vertex="1" parent="1">
          <mxGeometry x="440" y="280" width="280" height="280" as="geometry" />
        </mxCell>
        <mxCell id="Qv8Gig_lNZ5WpE_LXsZh-1" value="" style="ellipse;whiteSpace=wrap;html=1;aspect=fixed;fontStyle=1;fillColor=#e1d5e7;strokeColor=#9673a6;" vertex="1" parent="1">
          <mxGeometry x="520" y="360" width="120" height="120" as="geometry" />
        </mxCell>
        <mxCell id="Qv8Gig_lNZ5WpE_LXsZh-5" value="Application.DataAccess" style="text;html=1;strokeColor=none;fillColor=none;align=center;verticalAlign=middle;whiteSpace=wrap;rounded=0;fontStyle=1" vertex="1" parent="1">
          <mxGeometry x="502.5" y="310" width="155" height="30" as="geometry" />
        </mxCell>
        <mxCell id="Qv8Gig_lNZ5WpE_LXsZh-6" value="Core" style="text;html=1;strokeColor=none;fillColor=none;align=center;verticalAlign=middle;whiteSpace=wrap;rounded=0;fontStyle=1" vertex="1" parent="1">
          <mxGeometry x="550" y="405" width="60" height="30" as="geometry" />
        </mxCell>
        <mxCell id="Qv8Gig_lNZ5WpE_LXsZh-8" value="Application.Services" style="text;html=1;strokeColor=none;fillColor=none;align=center;verticalAlign=middle;whiteSpace=wrap;rounded=0;fontStyle=1" vertex="1" parent="1">
          <mxGeometry x="507" y="220" width="155" height="30" as="geometry" />
        </mxCell>
        <mxCell id="Qv8Gig_lNZ5WpE_LXsZh-10" value="WebApi" style="text;html=1;strokeColor=none;fillColor=none;align=center;verticalAlign=middle;whiteSpace=wrap;rounded=0;fontStyle=1" vertex="1" parent="1">
          <mxGeometry x="502.5" y="120" width="155" height="30" as="geometry" />
        </mxCell>
        <mxCell id="Qv8Gig_lNZ5WpE_LXsZh-11" value="Infrastructure" style="text;html=1;strokeColor=none;fillColor=none;align=center;verticalAlign=middle;whiteSpace=wrap;rounded=0;fontStyle=1" vertex="1" parent="1">
          <mxGeometry x="507" y="680" width="155" height="30" as="geometry" />
        </mxCell>
      </root>
    </mxGraphModel>
  </diagram>
</mxfile>
